<?xml version="1.0" encoding="UTF-8" standalone="no"?>
<!DOCTYPE svg PUBLIC "-//W3C//DTD SVG 1.1//EN" "http://www.w3.org/Graphics/SVG/1.1/DTD/svg11.dtd">
<svg width="100%" height="100%" viewBox="0 0 1721 1602" version="1.1" xmlns="http://www.w3.org/2000/svg" xmlns:xlink="http://www.w3.org/1999/xlink" xml:space="preserve" xmlns:serif="http://www.serif.com/" style="fill-rule:evenodd;clip-rule:evenodd;stroke-linecap:round;stroke-linejoin:round;stroke-miterlimit:5;">
    <g transform="matrix(1,0,0,1,-114.556768,-148.25)">
        <g transform="matrix(1,0,0,1,-105,-90)">
            <path d="M1206.945,341.925C1200.827,404.825 1209.941,465.714 1234.286,524.59C1302.529,542.16 1366.803,571.238 1423.973,610.408C1488.151,591.581 1544.505,560.311 1593.038,516.599C1656.451,570.079 1709.948,633.1 1751.336,703.081C1695.174,737.805 1650.184,782.462 1616.365,837.052C1644.292,898.131 1660.167,963.47 1663.214,1029.883C1718.896,1065.282 1780.056,1087.178 1846.693,1095.571C1841.724,1175.492 1822.631,1254.078 1790.197,1328.11C1726.283,1308.509 1661.067,1303.307 1594.55,1312.504C1561.132,1371.098 1516.653,1423.496 1463.282,1467.142C1468.54,1530.111 1488.45,1588.685 1523.013,1642.863C1453.403,1689.043 1376.098,1724.017 1294.265,1746.352C1270.727,1687.186 1234.395,1636.042 1185.269,1592.92C1115.67,1604.908 1044.33,1604.908 974.731,1592.92C925.605,1636.042 889.273,1687.186 865.735,1746.352C783.902,1724.017 706.597,1689.043 636.987,1642.863C671.55,1588.685 691.46,1530.111 696.718,1467.142C643.347,1423.496 598.868,1371.098 565.45,1312.504C498.933,1303.307 433.717,1308.509 369.803,1328.11C337.369,1254.078 318.276,1175.492 313.307,1095.571C379.944,1087.178 441.104,1065.282 496.786,1029.883C499.833,963.47 515.708,898.131 543.635,837.052C509.816,782.462 464.826,737.805 408.664,703.081C450.052,633.1 503.549,570.079 566.962,516.599C615.495,560.311 671.849,591.581 736.027,610.408C793.197,571.238 857.471,542.16 925.714,524.59C950.059,465.714 959.173,404.825 953.055,341.925C1037.099,328.692 1122.901,328.692 1206.945,341.925ZM1080,615.999C1337.025,615.999 1545.697,812.037 1545.697,1053.5C1545.697,1294.963 1337.025,1491.001 1080,1491.001C822.975,1491.001 614.303,1294.963 614.303,1053.5C614.303,812.037 822.975,615.999 1080,615.999Z" style="fill:none;stroke:black;stroke-width:187.5px;"/>
            <path d="M1206.945,341.925C1200.827,404.825 1209.941,465.714 1234.286,524.59C1302.529,542.16 1366.803,571.238 1423.973,610.408C1488.151,591.581 1544.505,560.311 1593.038,516.599C1656.451,570.079 1709.948,633.1 1751.336,703.081C1695.174,737.805 1650.184,782.462 1616.365,837.052C1644.292,898.131 1660.167,963.47 1663.214,1029.883C1718.896,1065.282 1780.056,1087.178 1846.693,1095.571C1841.724,1175.492 1822.631,1254.078 1790.197,1328.11C1726.283,1308.509 1661.067,1303.307 1594.55,1312.504C1561.132,1371.098 1516.653,1423.496 1463.282,1467.142C1468.54,1530.111 1488.45,1588.685 1523.013,1642.863C1453.403,1689.043 1376.098,1724.017 1294.265,1746.352C1270.727,1687.186 1234.395,1636.042 1185.269,1592.92C1115.67,1604.908 1044.33,1604.908 974.731,1592.92C925.605,1636.042 889.273,1687.186 865.735,1746.352C783.902,1724.017 706.597,1689.043 636.987,1642.863C671.55,1588.685 691.46,1530.111 696.718,1467.142C643.347,1423.496 598.868,1371.098 565.45,1312.504C498.933,1303.307 433.717,1308.509 369.803,1328.11C337.369,1254.078 318.276,1175.492 313.307,1095.571C379.944,1087.178 441.104,1065.282 496.786,1029.883C499.833,963.47 515.708,898.131 543.635,837.052C509.816,782.462 464.826,737.805 408.664,703.081C450.052,633.1 503.549,570.079 566.962,516.599C615.495,560.311 671.849,591.581 736.027,610.408C793.197,571.238 857.471,542.16 925.714,524.59C950.059,465.714 959.173,404.825 953.055,341.925C1037.099,328.692 1122.901,328.692 1206.945,341.925ZM1080,615.999C1337.025,615.999 1545.697,812.037 1545.697,1053.5C1545.697,1294.963 1337.025,1491.001 1080,1491.001C822.975,1491.001 614.303,1294.963 614.303,1053.5C614.303,812.037 822.975,615.999 1080,615.999Z"/>
        </g>
    </g>
</svg>
