<?xml version="1.0" encoding="UTF-8" standalone="no"?>
<!DOCTYPE svg PUBLIC "-//W3C//DTD SVG 1.1//EN" "http://www.w3.org/Graphics/SVG/1.1/DTD/svg11.dtd">
<svg width="100%" height="100%" viewBox="0 0 2000 2000" version="1.1" xmlns="http://www.w3.org/2000/svg" xmlns:xlink="http://www.w3.org/1999/xlink" xml:space="preserve" xmlns:serif="http://www.serif.com/" style="fill-rule:evenodd;clip-rule:evenodd;stroke-linecap:round;stroke-linejoin:round;stroke-miterlimit:1;">
    <g transform="matrix(1.39444,0,0,1.358392,-430.308862,-354.557692)">
        <path d="M1616.793,862.459L1630.984,862.459C1668.61,862.459 1699.112,893.771 1699.112,932.395L1699.112,1609.667C1699.112,1648.291 1668.61,1679.602 1630.984,1679.602L420.462,1679.602C382.836,1679.602 352.334,1648.291 352.334,1609.667L352.334,932.395C352.334,893.771 382.836,862.459 420.462,862.459L466.207,862.459C466.069,857.323 466,852.169 466,847C466,531.305 723.873,275 1041.5,275C1359.127,275 1617,531.305 1617,847C1617,852.169 1616.931,857.323 1616.793,862.459ZM754.164,862.459L1328.836,862.459C1329.111,857.341 1329.25,852.186 1329.25,847C1329.25,689.152 1200.314,561 1041.5,561C882.686,561 753.75,689.152 753.75,847C753.75,852.186 753.889,857.341 754.164,862.459ZM1131.5,1160.606C1131.5,1145.768 1125.758,1131.537 1115.537,1121.045C1105.316,1110.552 1091.453,1104.658 1076.998,1104.658C1045.485,1104.658 1005.962,1104.658 974.448,1104.658C959.993,1104.658 946.13,1110.552 935.909,1121.045C925.688,1131.537 919.946,1145.768 919.946,1160.606C919.946,1222.529 919.946,1321.742 919.946,1383.664C919.946,1398.503 925.688,1412.733 935.909,1423.226C946.13,1433.718 959.993,1439.613 974.448,1439.613C1005.962,1439.613 1045.485,1439.613 1076.998,1439.613C1091.453,1439.613 1105.316,1433.718 1115.537,1423.226C1125.758,1412.733 1131.5,1398.503 1131.5,1383.664C1131.5,1321.742 1131.5,1222.529 1131.5,1160.606Z" style="fill:none;stroke:black;stroke-width:9.08px;"/>
        <path d="M1616.793,862.459L1630.984,862.459C1668.61,862.459 1699.112,893.771 1699.112,932.395L1699.112,1609.667C1699.112,1648.291 1668.61,1679.602 1630.984,1679.602L420.462,1679.602C382.836,1679.602 352.334,1648.291 352.334,1609.667L352.334,932.395C352.334,893.771 382.836,862.459 420.462,862.459L466.207,862.459C466.069,857.323 466,852.169 466,847C466,531.305 723.873,275 1041.5,275C1359.127,275 1617,531.305 1617,847C1617,852.169 1616.931,857.323 1616.793,862.459ZM754.164,862.459L1328.836,862.459C1329.111,857.341 1329.25,852.186 1329.25,847C1329.25,689.152 1200.314,561 1041.5,561C882.686,561 753.75,689.152 753.75,847C753.75,852.186 753.889,857.341 754.164,862.459ZM1131.5,1160.606C1131.5,1145.768 1125.758,1131.537 1115.537,1121.045C1105.316,1110.552 1091.453,1104.658 1076.998,1104.658C1045.485,1104.658 1005.962,1104.658 974.448,1104.658C959.993,1104.658 946.13,1110.552 935.909,1121.045C925.688,1131.537 919.946,1145.768 919.946,1160.606C919.946,1222.529 919.946,1321.742 919.946,1383.664C919.946,1398.503 925.688,1412.733 935.909,1423.226C946.13,1433.718 959.993,1439.613 974.448,1439.613C1005.962,1439.613 1045.485,1439.613 1076.998,1439.613C1091.453,1439.613 1105.316,1433.718 1115.537,1423.226C1125.758,1412.733 1131.5,1398.503 1131.5,1383.664C1131.5,1321.742 1131.5,1222.529 1131.5,1160.606Z"/>
    </g>
</svg>
